# xmcd
#
# Track frame offsets: 
#        150
#        18817
#        33377
#        48167
#        58127
#        73610
#        88200
#        105222
#        119229
#        133730
#        148852
#        164647
#
# Disc length: 2387 seconds
#
# Revision: 0
# Processed by: cddbd v1.5PL3 Copyright (c) Steve Scherf et al.
# Submitted via: ExactAudioCopy v0.90b4
#
DISCID=ae09510c
DTITLE=Rick Trevino - El Corazon De Rick Trevino
DYEAR=1900
DGENRE=Country
TTITLE0=Un Rayo De Luz (Spanish Version)
TTITLE1=Bastante Cordon
TTITLE2=She Can't Say I Didn't Cry
TTITLE3=Corazon Sonador
TTITLE4=Si Quieres Conmigo
TTITLE5=Me Duele Que La Trate Tan Bien (I Wish He Wouldn't Treat Her T
TTITLE5=hat Way)
TTITLE6=Mi Vida Eres Tu (I Only Get This Way With You) (Spanish Versio
TTITLE6=n)
TTITLE7=Se Escapan Mis Razones (Running Out Of Reasons)
TTITLE8=Un Momento Alla
TTITLE9=Vivo Por Ti (I'm Here For You)
TTITLE10=Estoy Tan Solo (Learning As You Go)
TTITLE11=Alivia El Dolor
EXTD=
EXTT0=
EXTT1=
EXTT2=
EXTT3=
EXTT4=
EXTT5=
EXTT6=
EXTT7=
EXTT8=
EXTT9=
EXTT10=
EXTT11=
PLAYORDER=
